<svg xmlns="http://www.w3.org/2000/svg" viewBox="0 0 880 620" font-family="'SF Mono','Fira Code','Cascadia Code',monospace">
  <defs>
    <linearGradient id="bg" x1="0" y1="0" x2="0" y2="1">
      <stop offset="0%" stop-color="#0d1117"/>
      <stop offset="100%" stop-color="#161b22"/>
    </linearGradient>
    <linearGradient id="accent" x1="0" y1="0" x2="1" y2="1">
      <stop offset="0%" stop-color="#58a6ff"/>
      <stop offset="100%" stop-color="#bc8cff"/>
    </linearGradient>
    <linearGradient id="green" x1="0" y1="0" x2="1" y2="0">
      <stop offset="0%" stop-color="#3fb950"/>
      <stop offset="100%" stop-color="#56d364"/>
    </linearGradient>
    <linearGradient id="orange" x1="0" y1="0" x2="1" y2="0">
      <stop offset="0%" stop-color="#d29922"/>
      <stop offset="100%" stop-color="#e3b341"/>
    </linearGradient>
    <linearGradient id="red" x1="0" y1="0" x2="1" y2="0">
      <stop offset="0%" stop-color="#f85149"/>
      <stop offset="100%" stop-color="#ff7b72"/>
    </linearGradient>
    <filter id="glow">
      <feGaussianBlur stdDeviation="2" result="blur"/>
      <feMerge><feMergeNode in="blur"/><feMergeNode in="SourceGraphic"/></feMerge>
    </filter>
  </defs>

  <!-- Background -->
  <rect width="880" height="620" rx="12" fill="url(#bg)"/>
  <rect x="1" y="1" width="878" height="618" rx="11" fill="none" stroke="#30363d" stroke-width="1"/>

  <!-- Title -->
  <text x="440" y="42" text-anchor="middle" fill="#f0f6fc" font-size="18" font-weight="700" letter-spacing="0.5">NOYDB Architecture</text>
  <text x="440" y="62" text-anchor="middle" fill="#8b949e" font-size="11">Zero-Knowledge Encrypted Document Store</text>

  <!-- Layer 1: Application -->
  <rect x="240" y="85" width="400" height="52" rx="8" fill="#0d1117" stroke="#58a6ff" stroke-width="1.5"/>
  <text x="440" y="108" text-anchor="middle" fill="#58a6ff" font-size="11" font-weight="600">APPLICATION</text>
  <text x="440" y="124" text-anchor="middle" fill="#8b949e" font-size="10">collection.put() / .get() / .query() / .list()</text>

  <!-- Arrow -->
  <line x1="440" y1="137" x2="440" y2="155" stroke="#30363d" stroke-width="1.5"/>
  <polygon points="435,152 440,160 445,152" fill="#30363d"/>

  <!-- Layer 2: Permission Check -->
  <rect x="240" y="162" width="400" height="52" rx="8" fill="#0d1117" stroke="#d29922" stroke-width="1.5"/>
  <text x="440" y="185" text-anchor="middle" fill="#d29922" font-size="11" font-weight="600">PERMISSION CHECK</text>
  <text x="440" y="201" text-anchor="middle" fill="#8b949e" font-size="10">Keyring -> Role -> rw / ro / denied</text>

  <!-- Arrow -->
  <line x1="440" y1="214" x2="440" y2="232" stroke="#30363d" stroke-width="1.5"/>
  <polygon points="435,229 440,237 445,229" fill="#30363d"/>

  <!-- Layer 3: Crypto Layer -->
  <rect x="240" y="239" width="400" height="64" rx="8" fill="#0d1117" stroke="#f85149" stroke-width="1.5"/>
  <rect x="240" y="239" width="400" height="64" rx="8" fill="#f8514908"/>
  <text x="440" y="262" text-anchor="middle" fill="#f85149" font-size="11" font-weight="600">CRYPTO LAYER</text>
  <text x="440" y="278" text-anchor="middle" fill="#8b949e" font-size="10">AES-256-GCM  |  Fresh IV per write  |  Web Crypto API</text>
  <text x="440" y="293" text-anchor="middle" fill="#484f58" font-size="9">Last layer to see plaintext. Everything below is ciphertext.</text>

  <!-- Plaintext/Ciphertext boundary -->
  <line x1="40" y1="315" x2="840" y2="315" stroke="#f85149" stroke-width="1" stroke-dasharray="6,4" opacity="0.5"/>
  <rect x="350" y="307" width="180" height="16" rx="4" fill="#0d1117"/>
  <text x="440" y="318" text-anchor="middle" fill="#f85149" font-size="9" font-weight="600">PLAINTEXT / CIPHERTEXT BOUNDARY</text>

  <!-- Arrow -->
  <line x1="440" y1="315" x2="440" y2="340" stroke="#30363d" stroke-width="1.5"/>
  <polygon points="435,337 440,345 445,337" fill="#30363d"/>

  <!-- Layer 4: Sync Engine -->
  <rect x="240" y="347" width="400" height="52" rx="8" fill="#0d1117" stroke="#bc8cff" stroke-width="1.5" stroke-dasharray="6,3"/>
  <text x="440" y="370" text-anchor="middle" fill="#bc8cff" font-size="11" font-weight="600">SYNC ENGINE (optional)</text>
  <text x="440" y="386" text-anchor="middle" fill="#8b949e" font-size="10">Dirty tracking / Push / Pull / Conflict resolution</text>

  <!-- Arrow -->
  <line x1="440" y1="399" x2="440" y2="417" stroke="#30363d" stroke-width="1.5"/>
  <polygon points="435,414 440,422 445,414" fill="#30363d"/>

  <!-- Layer 5: Adapter Interface -->
  <rect x="240" y="424" width="400" height="40" rx="8" fill="#0d1117" stroke="#3fb950" stroke-width="1.5"/>
  <text x="440" y="444" text-anchor="middle" fill="#3fb950" font-size="11" font-weight="600">ADAPTER INTERFACE</text>
  <text x="440" y="457" text-anchor="middle" fill="#8b949e" font-size="9">6 methods: get / put / delete / list / loadAll / saveAll</text>

  <!-- Branching arrows to adapters -->
  <line x1="300" y1="464" x2="108" y2="490" stroke="#30363d" stroke-width="1"/>
  <line x1="380" y1="464" x2="268" y2="490" stroke="#30363d" stroke-width="1"/>
  <line x1="440" y1="464" x2="440" y2="490" stroke="#30363d" stroke-width="1"/>
  <line x1="500" y1="464" x2="612" y2="490" stroke="#30363d" stroke-width="1"/>
  <line x1="580" y1="464" x2="772" y2="490" stroke="#30363d" stroke-width="1"/>

  <!-- Adapter boxes -->
  <rect x="40" y="492" width="136" height="56" rx="6" fill="#0d1117" stroke="#3fb950" stroke-width="1" opacity="0.8"/>
  <text x="108" y="514" text-anchor="middle" fill="#3fb950" font-size="10" font-weight="600">@noy-db/file</text>
  <text x="108" y="530" text-anchor="middle" fill="#484f58" font-size="9">USB / Local disk</text>
  <text x="108" y="542" text-anchor="middle" fill="#484f58" font-size="8">JSON files</text>

  <rect x="200" y="492" width="136" height="56" rx="6" fill="#0d1117" stroke="#3fb950" stroke-width="1" opacity="0.8"/>
  <text x="268" y="514" text-anchor="middle" fill="#3fb950" font-size="10" font-weight="600">@noy-db/dynamo</text>
  <text x="268" y="530" text-anchor="middle" fill="#484f58" font-size="9">AWS DynamoDB</text>
  <text x="268" y="542" text-anchor="middle" fill="#484f58" font-size="8">Single-table</text>

  <rect x="372" y="492" width="136" height="56" rx="6" fill="#0d1117" stroke="#3fb950" stroke-width="1" opacity="0.8"/>
  <text x="440" y="514" text-anchor="middle" fill="#3fb950" font-size="10" font-weight="600">@noy-db/s3</text>
  <text x="440" y="530" text-anchor="middle" fill="#484f58" font-size="9">AWS S3</text>
  <text x="440" y="542" text-anchor="middle" fill="#484f58" font-size="8">ETag concurrency</text>

  <rect x="544" y="492" width="136" height="56" rx="6" fill="#0d1117" stroke="#3fb950" stroke-width="1" opacity="0.8"/>
  <text x="612" y="514" text-anchor="middle" fill="#3fb950" font-size="10" font-weight="600">@noy-db/browser</text>
  <text x="612" y="530" text-anchor="middle" fill="#484f58" font-size="9">IndexedDB / LS</text>
  <text x="612" y="542" text-anchor="middle" fill="#484f58" font-size="8">PWA / SPA</text>

  <rect x="704" y="492" width="136" height="56" rx="6" fill="#0d1117" stroke="#3fb950" stroke-width="1" opacity="0.8"/>
  <text x="772" y="514" text-anchor="middle" fill="#3fb950" font-size="10" font-weight="600">@noy-db/memory</text>
  <text x="772" y="530" text-anchor="middle" fill="#484f58" font-size="9">In-memory Map</text>
  <text x="772" y="542" text-anchor="middle" fill="#484f58" font-size="8">Testing</text>

  <!-- Side annotation: Backup -->
  <rect x="40" y="85" width="170" height="72" rx="8" fill="#0d1117" stroke="#30363d" stroke-width="1"/>
  <text x="125" y="108" text-anchor="middle" fill="#8b949e" font-size="10" font-weight="600">Backup / Restore</text>
  <line x1="50" y1="115" x2="200" y2="115" stroke="#21262d" stroke-width="1"/>
  <text x="125" y="130" text-anchor="middle" fill="#484f58" font-size="9">.dump()  encrypted blob</text>
  <text x="125" y="143" text-anchor="middle" fill="#484f58" font-size="9">.load()  restore</text>
  <text x="125" y="156" text-anchor="middle" fill="#484f58" font-size="9">.export() owner only</text>

  <!-- Side annotation: Auth -->
  <rect x="670" y="85" width="170" height="72" rx="8" fill="#0d1117" stroke="#30363d" stroke-width="1"/>
  <text x="755" y="108" text-anchor="middle" fill="#8b949e" font-size="10" font-weight="600">Authentication</text>
  <line x1="680" y1="115" x2="830" y2="115" stroke="#21262d" stroke-width="1"/>
  <text x="755" y="130" text-anchor="middle" fill="#484f58" font-size="9">Passphrase -> PBKDF2</text>
  <text x="755" y="143" text-anchor="middle" fill="#484f58" font-size="9">Biometric -> WebAuthn</text>
  <text x="755" y="156" text-anchor="middle" fill="#484f58" font-size="9">KEK -> unwrap DEKs</text>

  <!-- Bottom tagline -->
  <text x="440" y="586" text-anchor="middle" fill="#484f58" font-size="10">Adapters only see ciphertext. Zero runtime dependencies. Web Crypto API only.</text>
  <text x="440" y="604" text-anchor="middle" fill="#30363d" font-size="9">noydb</text>
</svg>
